<svg id="Layer_1" data-name="Layer 1" xmlns="http://www.w3.org/2000/svg" xmlns:xlink="http://www.w3.org/1999/xlink" viewBox="0 0 500.3 475.09"><defs><style>.cls-1,.cls-6{fill:#ec008c;}.cls-1{stroke:#ec008c;}.cls-1,.cls-2,.cls-3,.cls-4,.cls-5,.cls-6,.cls-7,.cls-8,.cls-9{stroke-miterlimit:10;stroke-width:3px;}.cls-2,.cls-3,.cls-4,.cls-5,.cls-6,.cls-7,.cls-8,.cls-9{stroke:#231f20;}.cls-2{fill:url(#linear-gradient);}.cls-3{fill:url(#linear-gradient-2);}.cls-4{fill:url(#linear-gradient-3);}.cls-5{fill:#d60080;}.cls-7{fill:url(#linear-gradient-4);}.cls-8{fill:url(#linear-gradient-5);}.cls-9{fill:url(#linear-gradient-6);}</style><linearGradient id="linear-gradient" x1="126.02" y1="311.15" x2="323.98" y2="315.4" gradientUnits="userSpaceOnUse"><stop offset="0" stop-color="#e60b8b"/><stop offset="1" stop-color="#9f258e"/></linearGradient><linearGradient id="linear-gradient-2" x1="126.12" y1="307.64" x2="324.08" y2="311.9" xlink:href="#linear-gradient"/><linearGradient id="linear-gradient-3" x1="126.07" y1="309.4" x2="324.03" y2="313.65" xlink:href="#linear-gradient"/><linearGradient id="linear-gradient-4" x1="60.73" y1="426.12" x2="480.43" y2="426.12" gradientUnits="userSpaceOnUse"><stop offset="0" stop-color="#ec008c"/><stop offset="1" stop-color="#821d7f"/></linearGradient><linearGradient id="linear-gradient-5" x1="124.86" y1="426.05" x2="544.57" y2="426.05" xlink:href="#linear-gradient-4"/><linearGradient id="linear-gradient-6" x1="53.93" y1="302.26" x2="551.23" y2="302.26" xlink:href="#linear-gradient-4"/></defs><path class="cls-1" d="M519.13,602.71" transform="translate(-52.43 -117.3)"/><rect class="cls-2" x="142.87" y="198.9" width="51.55" height="226.33" rx="25.77"/><rect class="cls-3" x="305.89" y="198.9" width="51.55" height="226.33" rx="25.77"/><rect class="cls-4" x="224.38" y="150.53" width="51.55" height="323.06" rx="25.77"/><path class="cls-5" d="M342.45,452a41.17,41.17,0,0,0-17.74-14.81c-2.53-7.62-4.94-15.85-7.1-24.66-1.38-5.62-2.55-11.07-3.55-16.32,1.62-3,10-18.79,13.49-31.58a58.86,58.86,0,0,0,1.95-10.29,56.25,56.25,0,0,0-.18-12.15,18.94,18.94,0,0,0-6.74-12,17.35,17.35,0,0,0-6-3c-1.43-.27-8-1.39-13.49.62a28.93,28.93,0,0,0-4.25,2,24.66,24.66,0,0,0-4.26,3.19,21.11,21.11,0,0,0-4.26,5.68c-2.85,5.29-3.06,10.59-3.19,15.25a64.56,64.56,0,0,0,1.06,12.78c.59,3.69,1.24,6.31,1.78,8.51,1.13,4.65,2.71,11.39,4.61,20.23-5.1,5-12.48,12.63-20.94,22.35-7.8,9-11.71,13.48-14.62,18.57-3.39,5.94-11.57,20.27-8.79,38.56a46.83,46.83,0,0,0,29.28,37.69,57.92,57.92,0,0,0,16.9,4.06,60.44,60.44,0,0,0,19.51-1.43,69.35,69.35,0,0,1-2.54,25.32,71.79,71.79,0,0,1-23.57,35,69.36,69.36,0,0,0,30-20.83c17.15-20.7,16-44.71,15.61-50.38a39.19,39.19,0,0,0,7.1-8.17,36.28,36.28,0,0,0,5.41-12.77c1.11-5.49.59-9.94.09-14.28a60.87,60.87,0,0,0-1.16-6.56,35.2,35.2,0,0,0-1.41-5A28.67,28.67,0,0,0,342.45,452Zm-37.88-90a40.26,40.26,0,0,1-.53-10.73c.27-3,.85-5.27,2.57-6.66a5.21,5.21,0,0,1,2.66-1.15,4.51,4.51,0,0,1,3.11.71c1.4,1.12,1.33,3.34,1.24,4.79a63,63,0,0,1-2.66,14.1c-1,3.16-2.24,6.74-3.64,10.65A100.15,100.15,0,0,1,304.57,362Zm-37.34,123.3c-4.45-9.3-3.64-17.94-3.2-22.36,3-29,30.67-46.52,35.84-49.67l6,22a28.45,28.45,0,0,0-13.48,8.16c-8.6,9.44-7.33,21.46-7.1,23.42a12,12,0,0,0,1.42,4.89c1.41,2.55,3.75,4.49,4.16,4.18s-2.47-3.49-3.29-8.62a19.21,19.21,0,0,1,.55-8,24.65,24.65,0,0,1,7.45-12.78A35,35,0,0,1,307,440.6h0s2.12,7.42,3.9,14.19a155.63,155.63,0,0,1,3.9,17c.61,4,.83,7,1.07,10.29a208,208,0,0,1,.35,22.71,40.74,40.74,0,0,1-24.48.81C289.63,505,274.45,500.4,267.23,485.31Zm62.16-29.68c-.87-4.11-1.84-7.45-2.55-9.71a33.59,33.59,0,0,1,11.71,14.9c.63,1.64,4.58,12.17.35,22.36-1.33,3.2-3.89,7.37-4.61,7.09-.29-.11-.18-.89-.18-2.39,0-1-.21-2.66-.62-5.95-.55-4.39-1.37-9.16-2.31-15.16C330,459,330,458.63,329.39,455.63Z" transform="translate(-52.43 -117.3)"/><path class="cls-6" d="M347,435.53a132.81,132.81,0,0,1,4.73,19.94c1.47,9.38,2.6,16.52,1.34,25-1.28,8.69-1.92,13-3.13,15.61,0,0-1.77,3.77-1.1,4.58h0s.15.05,2.05-1.67a45.82,45.82,0,0,0,11.34-31.67C361.43,448.63,349.15,437.44,347,435.53Z" transform="translate(-52.43 -117.3)"/><path class="cls-6" d="M249.74,435.53a145.06,145.06,0,0,0-4.28,19.94c-1.34,9.38-2.36,16.52-1.22,25,1.16,8.69,1.74,13,2.84,15.61,0,0,1.6,3.77,1,4.58h0s-.13.05-1.86-1.67a48.44,48.44,0,0,1-10.27-31.67A47.63,47.63,0,0,1,249.74,435.53Z" transform="translate(-52.43 -117.3)"/><path class="cls-7" d="M97.08,500.46c0,23.23,16,42.07,35.67,42.07s35.67-18.84,35.67-42.07V351.78c0-23.24-16-42.07-35.67-42.07s-35.67,18.83-35.67,42.07V500.46Z" transform="translate(-52.43 -117.3)"/><path class="cls-8" d="M508.22,351.71c0-23.24-16-42.07-35.67-42.07s-35.68,18.83-35.68,42.07V500.39c0,23.23,16,42.07,35.68,42.07s35.67-18.84,35.67-42.07V351.71Z" transform="translate(-52.43 -117.3)"/><path class="cls-9" d="M302.58,118.8c-136.4,0-248.65,112.35-248.65,248.89v96.48a21.54,21.54,0,1,0,43.07,0v-92a21.55,21.55,0,0,0-19-21.4c8.74-115.93,106.71-208.58,224.61-208.58S518.45,234.87,527.2,350.8a21.55,21.55,0,0,0-19,21.4v92a21.53,21.53,0,1,0,43.06,0V367.69C551.23,231.15,439,118.8,302.58,118.8Z" transform="translate(-52.43 -117.3)"/></svg>